<svg id="Layer_1" data-name="Layer 1" xmlns="http://www.w3.org/2000/svg" viewBox="0 0 1000 1000"><defs><style>.cls-1{fill:#fff;}</style></defs><circle class="cls-1" cx="78.33" cy="72.71" r="22.66"/><circle class="cls-1" cx="199.25" cy="72.71" r="22.66"/><circle class="cls-1" cx="320.16" cy="72.71" r="22.66"/><circle class="cls-1" cx="441.08" cy="72.71" r="22.66"/><circle class="cls-1" cx="561.99" cy="72.71" r="22.66"/><circle class="cls-1" cx="682.91" cy="72.71" r="22.66"/><circle class="cls-1" cx="803.82" cy="72.71" r="22.66"/><circle class="cls-1" cx="924.74" cy="72.71" r="22.66"/><circle class="cls-1" cx="78.33" cy="167.11" r="22.66"/><circle class="cls-1" cx="199.25" cy="167.11" r="22.66"/><circle class="cls-1" cx="320.16" cy="167.11" r="22.66"/><circle class="cls-1" cx="441.08" cy="167.11" r="22.66"/><circle class="cls-1" cx="561.99" cy="167.11" r="22.66"/><circle class="cls-1" cx="682.91" cy="167.11" r="22.66"/><circle class="cls-1" cx="803.82" cy="167.11" r="22.66"/><circle class="cls-1" cx="924.74" cy="167.11" r="22.66"/><circle class="cls-1" cx="78.33" cy="261.51" r="22.66"/><circle class="cls-1" cx="199.25" cy="261.51" r="22.66"/><circle class="cls-1" cx="320.16" cy="261.51" r="22.66"/><circle class="cls-1" cx="441.08" cy="261.51" r="22.66"/><circle class="cls-1" cx="561.99" cy="261.51" r="22.66"/><circle class="cls-1" cx="682.91" cy="261.51" r="22.66"/><circle class="cls-1" cx="803.82" cy="261.51" r="22.66"/><circle class="cls-1" cx="924.74" cy="261.51" r="22.66"/><circle class="cls-1" cx="78.33" cy="355.91" r="22.66"/><circle class="cls-1" cx="199.25" cy="355.91" r="22.66"/><circle class="cls-1" cx="320.16" cy="355.91" r="22.66"/><circle class="cls-1" cx="441.08" cy="355.91" r="22.66"/><circle class="cls-1" cx="561.99" cy="355.91" r="22.66"/><circle class="cls-1" cx="682.91" cy="355.91" r="22.66"/><circle class="cls-1" cx="803.82" cy="355.91" r="22.66"/><circle class="cls-1" cx="924.74" cy="355.91" r="22.66"/><circle class="cls-1" cx="78.33" cy="450.31" r="22.66"/><circle class="cls-1" cx="199.25" cy="450.31" r="22.66"/><circle class="cls-1" cx="320.16" cy="450.31" r="22.66"/><circle class="cls-1" cx="441.08" cy="450.31" r="22.66"/><circle class="cls-1" cx="561.99" cy="450.31" r="22.66"/><circle class="cls-1" cx="682.91" cy="450.31" r="22.66"/><circle class="cls-1" cx="803.82" cy="450.31" r="22.66"/><circle class="cls-1" cx="924.74" cy="450.31" r="22.66"/><circle class="cls-1" cx="78.33" cy="544.71" r="22.66"/><circle class="cls-1" cx="199.25" cy="544.71" r="22.66"/><circle class="cls-1" cx="320.16" cy="544.71" r="22.66"/><circle class="cls-1" cx="441.08" cy="544.71" r="22.66"/><circle class="cls-1" cx="561.99" cy="544.71" r="22.66"/><circle class="cls-1" cx="682.91" cy="544.71" r="22.66"/><circle class="cls-1" cx="803.82" cy="544.71" r="22.66"/><circle class="cls-1" cx="924.74" cy="544.71" r="22.66"/><circle class="cls-1" cx="78.33" cy="639.11" r="22.66"/><circle class="cls-1" cx="199.25" cy="639.11" r="22.66"/><circle class="cls-1" cx="320.16" cy="639.11" r="22.66"/><circle class="cls-1" cx="441.08" cy="639.11" r="22.66"/><circle class="cls-1" cx="561.99" cy="639.11" r="22.66"/><circle class="cls-1" cx="682.91" cy="639.11" r="22.66"/><circle class="cls-1" cx="803.82" cy="639.11" r="22.66"/><circle class="cls-1" cx="924.74" cy="639.11" r="22.66"/><circle class="cls-1" cx="78.33" cy="733.51" r="22.66"/><circle class="cls-1" cx="199.25" cy="733.51" r="22.66"/><circle class="cls-1" cx="320.16" cy="733.51" r="22.66"/><circle class="cls-1" cx="441.08" cy="733.51" r="22.66"/><circle class="cls-1" cx="561.99" cy="733.51" r="22.66"/><circle class="cls-1" cx="682.91" cy="733.51" r="22.66"/><circle class="cls-1" cx="803.82" cy="733.51" r="22.66"/><circle class="cls-1" cx="924.74" cy="733.51" r="22.66"/><circle class="cls-1" cx="78.33" cy="827.91" r="22.66"/><circle class="cls-1" cx="199.25" cy="827.91" r="22.66"/><circle class="cls-1" cx="320.16" cy="827.91" r="22.66"/><circle class="cls-1" cx="441.08" cy="827.91" r="22.66"/><circle class="cls-1" cx="561.99" cy="827.91" r="22.66"/><circle class="cls-1" cx="682.91" cy="827.91" r="22.66"/><circle class="cls-1" cx="803.82" cy="827.91" r="22.66"/><circle class="cls-1" cx="924.74" cy="827.91" r="22.66"/><circle class="cls-1" cx="78.33" cy="922.31" r="22.66"/><circle class="cls-1" cx="199.25" cy="922.31" r="22.66"/><circle class="cls-1" cx="320.16" cy="922.31" r="22.66"/><circle class="cls-1" cx="441.08" cy="922.31" r="22.66"/><circle class="cls-1" cx="561.99" cy="922.31" r="22.66"/><circle class="cls-1" cx="682.91" cy="922.31" r="22.66"/><circle class="cls-1" cx="803.82" cy="922.31" r="22.66"/><circle class="cls-1" cx="924.74" cy="922.31" r="22.66"/></svg>